# xmcd
#
# Track frame offsets:
#	150
#	17437
#	31927
#	47375
#	61960
#	80812
#	94780
#	109837
#	123102
#	143700
#	160150
#	179935
#
# Disc length: 2642 seconds
#
# Revision: 1
# Processed by: cddbd v1.5.1PL0 Copyright (c) Steve Scherf et al.
# Submitted via: CDex 1.50Beta5
#
DISCID=970a500c
DTITLE=ビリーバンバン - ビリー・バンバン・ベスト・セレクション〜コロムビアCD文庫1,800〜
DYEAR=1993
DGENRE=Pop
TTITLE0=白いブランコ
TTITLE1=悲しみの中に
TTITLE2=思い出を作ろう
TTITLE3=ミドリーヌ
TTITLE4=むかしは一日中
TTITLE5=さよならをするために
TTITLE6=愛すべき僕たち
TTITLE7=ここは故郷
TTITLE8=まるで秋風みたいに
TTITLE9=目覚めた時には晴れていた
TTITLE10=子供たちをよろしく
TTITLE11=やさしい雨
EXTD=
EXTT0=
EXTT1=
EXTT2=
EXTT3=
EXTT4=
EXTT5=
EXTT6=
EXTT7=
EXTT8=
EXTT9=
EXTT10=
EXTT11=
PLAYORDER=
